<svg version="1.1" id="Layer_1" xmlns="http://www.w3.org/2000/svg" xmlns:xlink="http://www.w3.org/1999/xlink" x="0px" y="0px"
	 width="100%" viewBox="0 0 100 100" enable-background="new 0 0 100 100" xml:space="preserve">
<path fill="none" opacity="1.000000" stroke="none" 
	d="
M64.000000,101.000000 
	C42.666672,101.000000 21.833342,101.000000 1.000008,101.000000 
	C1.000006,67.666679 1.000006,34.333351 1.000003,1.000022 
	C34.333317,1.000015 67.666634,1.000015 100.999969,1.000007 
	C100.999977,34.333309 100.999977,67.666618 100.999985,100.999969 
	C88.833336,101.000000 76.666664,101.000000 64.000000,101.000000 
M75.347534,16.872875 
	C62.111900,6.102995 40.291897,6.037637 25.335085,17.222509 
	C23.918552,18.621435 22.523579,20.042997 21.082209,21.415846 
	C3.388846,38.268051 4.870455,69.964462 26.653727,85.128349 
	C40.598896,95.899185 61.277294,96.019615 76.665482,84.777336 
	C78.078865,83.381546 79.499962,81.993462 80.904465,80.588791 
	C99.028854,62.462219 96.722191,32.627510 75.347534,16.872875 
z"/>
<path fill="#ECEEEF" opacity="1.000000" stroke="none" 
	d="
M25.997398,17.166988 
	C40.291897,6.037637 62.111900,6.102995 75.675278,17.477552 
	C76.003090,40.332523 76.003174,62.582813 76.003258,84.833107 
	C61.277294,96.019615 40.598896,95.899185 26.325573,84.523163 
	C25.997412,61.667641 25.997404,39.417316 25.997398,17.166988 
M42.940517,39.870243 
	C42.940517,41.941280 42.940517,44.012318 42.940517,46.412449 
	C41.378616,45.983189 40.306797,45.688622 39.234982,45.394054 
	C39.389046,45.776527 39.543110,46.158997 39.697174,46.541466 
	C37.629108,47.647537 35.561043,48.753605 33.225739,50.002602 
	C33.970287,51.312965 34.990341,53.108204 35.973095,54.837795 
	C34.897160,55.843708 34.038311,56.646664 33.661045,56.999378 
	C36.653057,59.627258 39.421009,62.058346 42.188965,64.489433 
	C41.954369,64.765266 41.719772,65.041092 41.485176,65.316925 
	C43.778214,65.316925 46.071247,65.316925 47.414268,65.316925 
	C49.027164,67.332451 50.223415,68.827324 51.419666,70.322197 
	C51.862232,70.064720 52.304802,69.807236 52.747368,69.549759 
	C52.959053,68.151596 53.170734,66.753433 53.388714,65.313675 
	C55.978905,65.313675 58.273724,65.313675 60.568542,65.313675 
	C60.327957,64.988777 60.087372,64.663879 59.846783,64.338974 
	C62.734688,61.898689 65.622597,59.458401 68.543175,56.990509 
	C67.854469,56.401684 66.906921,55.591553 66.009186,54.824017 
	C67.140663,52.872292 68.110100,51.200066 68.797279,50.014732 
	C66.436691,48.752625 64.366554,47.645813 62.296421,46.538998 
	C62.454865,46.165913 62.613312,45.792828 62.771755,45.419739 
	C61.565975,45.786163 60.360191,46.152588 58.965740,46.576347 
	C58.965740,43.308575 58.965740,40.335548 58.965740,36.878143 
	C53.900135,40.296108 53.589859,34.503017 50.904030,32.801655 
	C48.683605,35.287239 47.484100,39.268002 43.091534,37.530514 
	C43.030266,38.021317 42.968998,38.512119 42.940517,39.870243 
z"/>
<path fill="#FF3D00" opacity="1.000000" stroke="none" 
	d="
M25.666241,17.194748 
	C25.997404,39.417316 25.997412,61.667641 25.997372,84.375549 
	C4.870455,69.964462 3.388846,38.268051 21.082209,21.415846 
	C22.523579,20.042997 23.918552,18.621435 25.666241,17.194748 
z"/>
<path fill="#FF3D00" opacity="1.000000" stroke="none" 
	d="
M76.334366,84.805222 
	C76.003174,62.582813 76.003090,40.332523 76.003143,17.624668 
	C96.722191,32.627510 99.028854,62.462219 80.904465,80.588791 
	C79.499962,81.993462 78.078865,83.381546 76.334366,84.805222 
z"/>
<path fill="#FF4005" opacity="1.000000" stroke="none" 
	d="
M42.924122,39.436584 
	C42.968998,38.512119 43.030266,38.021317 43.091537,37.530514 
	C47.484100,39.268002 48.683605,35.287239 50.904030,32.801655 
	C53.589859,34.503017 53.900135,40.296108 58.965740,36.878143 
	C58.965740,40.335548 58.965740,43.308575 58.965740,46.576347 
	C60.360191,46.152588 61.565975,45.786163 62.771755,45.419739 
	C62.613312,45.792828 62.454865,46.165913 62.296421,46.538998 
	C64.366554,47.645813 66.436691,48.752625 68.797279,50.014732 
	C68.110100,51.200066 67.140663,52.872292 66.009186,54.824017 
	C66.906921,55.591553 67.854469,56.401684 68.543175,56.990509 
	C65.622597,59.458401 62.734688,61.898689 59.846783,64.338974 
	C60.087372,64.663879 60.327957,64.988777 60.568542,65.313675 
	C58.273724,65.313675 55.978905,65.313675 53.388714,65.313675 
	C53.170734,66.753433 52.959053,68.151596 52.747368,69.549759 
	C52.304802,69.807236 51.862232,70.064720 51.419666,70.322197 
	C50.223415,68.827324 49.027164,67.332451 47.414268,65.316925 
	C46.071247,65.316925 43.778214,65.316925 41.485176,65.316925 
	C41.719772,65.041092 41.954369,64.765266 42.188965,64.489433 
	C39.421009,62.058346 36.653057,59.627258 33.661045,56.999378 
	C34.038311,56.646664 34.897160,55.843708 35.973095,54.837795 
	C34.990341,53.108204 33.970287,51.312965 33.225739,50.002602 
	C35.561043,48.753605 37.629108,47.647537 39.697174,46.541466 
	C39.543110,46.158997 39.389046,45.776527 39.234982,45.394054 
	C40.306797,45.688622 41.378616,45.983189 42.940517,46.412449 
	C42.940517,44.012318 42.940517,41.941280 42.924122,39.436584 
z"/>
</svg>