<svg version="1.1" id="Layer_1" xmlns="http://www.w3.org/2000/svg" xmlns:xlink="http://www.w3.org/1999/xlink" x="0px" y="0px"
	 width="100%" viewBox="0 0 100 100" enable-background="new 0 0 100 100" xml:space="preserve">
<path fill="none" opacity="1.000000" stroke="none" 
	d="
M63.000000,101.000000 
	C42.000004,101.000000 21.500008,101.000000 1.000008,101.000000 
	C1.000005,67.666679 1.000005,34.333351 1.000003,1.000022 
	C34.333317,1.000014 67.666634,1.000014 100.999969,1.000007 
	C100.999977,34.333313 100.999977,67.666626 100.999985,100.999969 
	C88.500000,101.000000 76.000000,101.000000 63.000000,101.000000 
M31.432987,88.082718 
	C41.535751,93.909256 52.273083,94.466354 63.186756,91.294937 
	C83.502869,85.391220 96.603722,64.335236 92.142220,42.619896 
	C87.498718,20.018761 66.878052,5.787606 44.470306,9.293718 
	C26.189749,12.154055 12.811702,24.019842 9.340209,44.021652 
	C6.429780,60.790760 12.562901,77.392075 31.432987,88.082718 
z"/>
<path fill="#FF3E00" opacity="1.000000" stroke="none" 
	d="
M31.060434,88.010193 
	C12.562901,77.392075 6.429780,60.790760 9.340209,44.021652 
	C12.811702,24.019842 26.189749,12.154055 44.470306,9.293718 
	C66.878052,5.787606 87.498718,20.018761 92.142220,42.619896 
	C96.603722,64.335236 83.502869,85.391220 63.186756,91.294937 
	C52.273083,94.466354 41.535751,93.909256 31.060434,88.010193 
M25.055113,55.663094 
	C27.215698,56.436436 29.376284,57.209774 32.658215,58.384480 
	C28.840984,53.703457 31.164705,50.753189 34.616470,47.815033 
	C29.204300,48.887650 27.605658,45.119286 25.449223,40.112198 
	C24.979174,46.509735 21.885920,48.055992 17.181013,47.806232 
	C18.927458,49.723824 20.867916,50.957325 21.314089,52.597347 
	C21.757833,54.228436 20.700123,56.268002 20.143145,58.863007 
	C22.025616,57.632599 23.257618,56.827343 25.055113,55.663094 
z"/>
<path fill="#FFE037" opacity="1.000000" stroke="none" 
	d="
M24.772366,55.842590 
	C23.257618,56.827343 22.025616,57.632599 20.143145,58.863007 
	C20.700123,56.268002 21.757833,54.228436 21.314089,52.597347 
	C20.867916,50.957325 18.927458,49.723824 17.181013,47.806232 
	C21.885920,48.055992 24.979174,46.509735 25.449223,40.112198 
	C27.605658,45.119286 29.204300,48.887650 34.616470,47.815033 
	C31.164705,50.753189 28.840984,53.703457 32.658215,58.384480 
	C29.376284,57.209774 27.215698,56.436436 24.772366,55.842590 
z"/>
</svg>