<svg version="1.1" id="Layer_1" xmlns="http://www.w3.org/2000/svg" xmlns:xlink="http://www.w3.org/1999/xlink" x="0px" y="0px"
	 width="100%" viewBox="0 0 100 100" enable-background="new 0 0 100 100" xml:space="preserve">
<path fill="none" opacity="1.000000" stroke="none" 
	d="
M63.000000,101.000000 
	C42.000004,101.000000 21.500008,101.000000 1.000008,101.000000 
	C1.000005,67.666679 1.000005,34.333351 1.000003,1.000022 
	C34.333317,1.000014 67.666634,1.000014 100.999969,1.000007 
	C100.999977,34.333313 100.999977,67.666626 100.999985,100.999969 
	C88.500000,101.000000 76.000000,101.000000 63.000000,101.000000 
M34.294594,89.749390 
	C37.625919,90.734535 40.901764,92.237846 44.299618,92.601646 
	C52.469616,93.476410 60.676788,93.686043 68.812218,88.992279 
	C91.634254,78.958603 100.301407,50.246082 86.606712,28.418980 
	C82.184715,21.371044 76.561249,14.993019 67.088989,12.676485 
	C55.999348,7.353989 44.949219,7.412865 33.218445,13.010538 
	C16.250866,21.351908 8.513782,35.053879 8.941380,53.857708 
	C9.269939,68.306252 20.268799,84.181694 34.294594,89.749390 
z"/>
<path fill="#ECEFF1" opacity="1.000000" stroke="none" 
	d="
M33.939091,12.919887 
	C44.949219,7.412865 55.999348,7.353989 67.360573,13.380346 
	C67.633759,36.949158 67.623436,59.814125 67.656631,82.679024 
	C67.659721,84.807953 67.938484,86.936485 68.089249,89.065201 
	C60.676788,93.686043 52.469616,93.476410 44.299618,92.601646 
	C40.901764,92.237846 37.625919,90.734535 34.266109,88.959579 
	C34.266724,70.217621 34.334694,52.265408 34.305691,34.313347 
	C34.294170,27.182014 34.067699,20.051029 33.939091,12.919887 
z"/>
<path fill="#3F51B5" opacity="1.000000" stroke="none" 
	d="
M33.578766,12.965212 
	C34.067699,20.051029 34.294170,27.182014 34.305691,34.313347 
	C34.334694,52.265408 34.266724,70.217621 34.088299,88.624695 
	C20.268799,84.181694 9.269939,68.306252 8.941380,53.857708 
	C8.513782,35.053879 16.250866,21.351908 33.578766,12.965212 
z"/>
<path fill="#FF3D00" opacity="1.000000" stroke="none" 
	d="
M68.450729,89.028740 
	C67.938484,86.936485 67.659721,84.807953 67.656631,82.679024 
	C67.623436,59.814125 67.633759,36.949158 67.628387,13.625957 
	C76.561249,14.993019 82.184715,21.371044 86.606712,28.418980 
	C100.301407,50.246082 91.634254,78.958603 68.450729,89.028740 
z"/>
</svg>