<svg version="1.1" id="Layer_1" xmlns="http://www.w3.org/2000/svg" xmlns:xlink="http://www.w3.org/1999/xlink" x="0px" y="0px"
	 width="100%" viewBox="0 0 100 100" enable-background="new 0 0 100 100" xml:space="preserve">
<path fill="none" opacity="1.000000" stroke="none" 
	d="
M56.000000,101.000000 
	C37.333336,101.000000 19.166674,101.000000 1.000007,101.000000 
	C1.000005,67.666679 1.000005,34.333351 1.000002,1.000021 
	C34.333317,1.000014 67.666634,1.000014 100.999969,1.000007 
	C100.999977,34.333313 100.999977,67.666626 100.999985,100.999969 
	C86.166664,101.000000 71.333336,101.000000 56.000000,101.000000 
M82.778893,23.382227 
	C80.886963,21.573503 78.995041,19.764782 76.698715,17.406065 
	C74.484253,16.237864 72.269791,15.069661 69.639694,13.348304 
	C67.460754,12.548413 65.281815,11.748524 62.587868,10.351219 
	C58.722736,9.955771 54.857609,9.560324 50.118435,9.052806 
	C46.743649,9.420911 43.368862,9.789016 39.294720,10.309477 
	C36.013481,11.823721 32.554787,13.045757 29.485823,14.909542 
	C21.722403,19.624275 15.143874,25.460873 12.271740,35.211460 
	C8.314018,43.188648 8.049352,51.480122 10.026845,60.734821 
	C11.073621,63.154518 12.120398,65.574219 13.018320,68.737457 
	C14.356524,71.236443 15.324783,74.044617 17.104773,76.174370 
	C21.778347,81.766304 26.748604,87.136879 34.662773,89.928200 
	C53.079197,97.394676 72.036484,91.749466 84.096069,77.224670 
	C86.249725,74.630768 87.281456,71.105362 89.124107,67.399063 
	C92.551285,61.350285 93.435043,54.815266 92.962898,47.192478 
	C92.012314,43.779942 91.061729,40.367405 90.004333,36.317692 
	C89.668694,35.825565 89.333054,35.333435 88.976219,34.112770 
	C87.019318,30.727224 85.062424,27.341677 82.778893,23.382227 
z"/>
<path fill="#FFD200" opacity="1.000000" stroke="none" 
	d="
M88.831230,68.010063 
	C87.281456,71.105362 86.249725,74.630768 84.096069,77.224670 
	C72.036484,91.749466 53.079197,97.394676 34.777424,89.539101 
	C41.926769,82.154617 48.961468,75.159225 56.394562,68.100540 
	C57.863270,67.968239 58.933586,67.899246 60.463711,67.889481 
	C64.950317,67.910263 68.977112,67.871819 73.466644,67.893326 
	C78.896667,67.972206 83.863953,67.991135 88.831230,68.010063 
z"/>
<path fill="#FFD600" opacity="1.000000" stroke="none" 
	d="
M55.996166,68.163841 
	C48.961468,75.159225 41.926769,82.154617 34.496826,89.243973 
	C26.748604,87.136879 21.778347,81.766304 17.104773,76.174370 
	C15.324783,74.044617 14.356524,71.236443 13.519575,68.366058 
	C16.015823,67.939514 18.010815,67.884361 20.466915,67.887955 
	C25.286087,67.908592 29.644148,67.870468 34.443386,67.891571 
	C37.256710,67.911896 39.628860,67.872993 42.435623,67.894203 
	C44.914631,67.914703 46.959019,67.875092 49.436794,67.897972 
	C51.912178,68.028252 53.954170,68.096046 55.996166,68.163841 
z"/>
<path fill="#F0434F" opacity="1.000000" stroke="none" 
	d="
M20.005806,67.829208 
	C18.010815,67.884361 16.015823,67.939514 13.594003,67.994293 
	C12.120398,65.574219 11.073621,63.154518 10.364817,60.175865 
	C16.500742,53.879051 22.362421,48.203503 28.064119,42.371544 
	C30.231981,40.154152 32.032093,37.577221 34.441437,35.106701 
	C37.256313,34.977665 39.629562,34.906086 42.437233,34.891029 
	C44.912365,35.020916 46.953075,35.094288 48.922966,35.491936 
	C47.717762,37.227821 46.697006,38.751823 45.430191,40.032413 
	C38.286472,47.253822 31.010143,54.345783 23.955114,61.651913 
	C22.290983,63.375267 21.304192,65.752678 20.005806,67.829208 
z"/>
<path fill="#EB3341" opacity="1.000000" stroke="none" 
	d="
M56.394562,68.100540 
	C53.954170,68.096046 51.912178,68.028252 49.455330,67.547821 
	C50.095383,65.521790 50.921024,63.684132 52.243366,62.332367 
	C59.407986,55.008324 66.757706,47.864777 73.886940,40.507183 
	C75.279648,39.069859 75.981049,36.962673 77.459213,35.105850 
	C81.610558,34.978600 85.303993,34.909950 88.997421,34.841301 
	C89.333054,35.333435 89.668694,35.825565 89.744537,36.783649 
	C88.500221,37.846432 87.352798,38.278397 86.556297,39.065479 
	C78.227089,47.296261 69.916725,55.547272 61.717079,63.906399 
	C60.783195,64.858444 60.557808,66.505478 60.003906,67.830254 
	C58.933586,67.899246 57.863270,67.968239 56.394562,68.100540 
z"/>
<path fill="#E92D3C" opacity="1.000000" stroke="none" 
	d="
M60.463715,67.889481 
	C60.557808,66.505478 60.783195,64.858444 61.717079,63.906399 
	C69.916725,55.547272 78.227089,47.296261 86.556297,39.065479 
	C87.352798,38.278397 88.500221,37.846432 89.797943,37.102234 
	C91.061729,40.367405 92.012314,43.779942 92.547577,47.614594 
	C91.108429,48.514954 89.863457,48.765141 89.096786,49.508579 
	C84.229637,54.228203 79.404976,58.996506 74.725540,63.900692 
	C73.797325,64.873482 73.559891,66.505409 73.003906,67.833374 
	C68.977112,67.871819 64.950317,67.910263 60.463715,67.889481 
z"/>
<path fill="#F24954" opacity="1.000000" stroke="none" 
	d="
M33.999813,35.164158 
	C32.032093,37.577221 30.231981,40.154152 28.064119,42.371544 
	C22.362421,48.203503 16.500742,53.879051 10.433603,59.795509 
	C8.049352,51.480122 8.314018,43.188648 13.051336,35.082184 
	C16.222286,34.913357 18.613642,34.873798 21.452074,34.889839 
	C24.602144,34.908417 27.305140,34.871399 30.405182,34.890434 
	C31.868092,35.019047 32.933952,35.091602 33.999813,35.164158 
z"/>
<path fill="#5B5B5B" opacity="1.000000" stroke="none" 
	d="
M34.441437,35.106701 
	C32.933952,35.091602 31.868092,35.019047 30.470778,34.555645 
	C31.301321,32.401821 32.233082,30.419052 33.667660,28.916277 
	C38.330589,24.031666 43.267441,19.407454 47.898296,14.493984 
	C49.270107,13.038451 49.979527,10.958627 50.992477,9.164875 
	C54.857609,9.560324 58.722736,9.955771 62.550079,10.819162 
	C56.616398,17.087801 50.604431,22.777985 44.904213,28.764982 
	C43.433994,30.309170 42.943413,32.786072 42.002815,34.834511 
	C39.629562,34.906086 37.256313,34.977665 34.441437,35.106701 
z"/>
<path fill="#575757" opacity="1.000000" stroke="none" 
	d="
M42.437233,34.891029 
	C42.943413,32.786072 43.433994,30.309170 44.904213,28.764982 
	C50.604431,22.777985 56.616398,17.087801 62.807583,11.117870 
	C65.281815,11.748524 67.460754,12.548413 69.676987,13.919477 
	C64.836578,19.466774 59.873199,24.363384 55.134735,29.468744 
	C53.760139,30.949772 53.029762,33.028717 51.629890,34.894066 
	C50.501743,35.025593 49.747765,35.096626 48.993790,35.167656 
	C46.953075,35.094288 44.912365,35.020916 42.437233,34.891029 
z"/>
<path fill="#5F5F5F" opacity="1.000000" stroke="none" 
	d="
M50.555458,9.108841 
	C49.979527,10.958627 49.270107,13.038451 47.898296,14.493984 
	C43.267441,19.407454 38.330589,24.031666 33.667660,28.916277 
	C32.233082,30.419052 31.301321,32.401821 30.073729,34.499592 
	C27.305140,34.871399 24.602144,34.908417 21.470135,34.540421 
	C21.980131,32.637745 22.702414,30.933451 23.897507,29.679932 
	C28.005188,25.371424 32.447147,21.371468 36.407814,16.937782 
	C38.061333,15.086786 38.825523,12.441342 39.994076,10.157120 
	C43.368862,9.789016 46.743649,9.420911 50.555458,9.108841 
z"/>
<path fill="#E72736" opacity="1.000000" stroke="none" 
	d="
M73.466644,67.893326 
	C73.559891,66.505409 73.797325,64.873482 74.725540,63.900692 
	C79.404976,58.996506 84.229637,54.228203 89.096786,49.508579 
	C89.863457,48.765141 91.108429,48.514954 92.482849,48.016495 
	C93.435043,54.815266 92.551285,61.350285 88.977669,67.704559 
	C83.863953,67.991135 78.896667,67.972206 73.466644,67.893326 
z"/>
<path fill="#626262" opacity="1.000000" stroke="none" 
	d="
M39.644398,10.233298 
	C38.825523,12.441342 38.061333,15.086786 36.407814,16.937782 
	C32.447147,21.371468 28.005188,25.371424 23.897507,29.679932 
	C22.702414,30.933451 21.980131,32.637745 21.023056,34.484825 
	C18.613642,34.873798 16.222286,34.913357 13.386470,34.902718 
	C15.143874,25.460873 21.722403,19.624275 29.485823,14.909542 
	C32.554787,13.045757 36.013481,11.823721 39.644398,10.233298 
z"/>
<path fill="#545454" opacity="1.000000" stroke="none" 
	d="
M52.004063,34.833565 
	C53.029762,33.028717 53.760139,30.949772 55.134735,29.468744 
	C59.873199,24.363384 64.836578,19.466774 69.884811,14.196056 
	C72.269791,15.069661 74.484253,16.237864 76.604691,17.848904 
	C72.821121,21.880466 69.005997,25.352165 65.501381,29.113207 
	C64.016075,30.707197 63.182747,32.908722 61.598595,34.893372 
	C58.097420,34.912941 55.050743,34.873253 52.004063,34.833565 
z"/>
<path fill="#505050" opacity="1.000000" stroke="none" 
	d="
M62.053093,34.834118 
	C63.182747,32.908722 64.016075,30.707197 65.501381,29.113207 
	C69.005997,25.352165 72.821121,21.880466 76.806885,18.123899 
	C78.995041,19.764782 80.886963,21.573503 82.645340,23.836985 
	C79.675819,27.805752 76.839851,31.319763 73.605576,34.894146 
	C72.136429,35.025539 71.065598,35.096565 69.551399,35.109337 
	C66.718697,35.088474 64.329353,35.125858 61.971397,35.082031 
	C62.002777,35.000820 62.053089,34.834118 62.053093,34.834118 
z"/>
<path fill="#4C4C4C" opacity="1.000000" stroke="none" 
	d="
M74.003883,34.833775 
	C76.839851,31.319763 79.675819,27.805752 82.808655,24.123936 
	C85.062424,27.341677 87.019318,30.727224 88.986816,34.477036 
	C85.303993,34.909950 81.610558,34.978600 77.086716,35.044998 
	C75.505493,34.973087 74.754692,34.903431 74.003883,34.833775 
z"/>
<path fill="#EE3E4B" opacity="1.000000" stroke="none" 
	d="
M51.629890,34.894066 
	C55.050743,34.873253 58.097420,34.912941 61.598595,34.893372 
	C62.053089,34.834118 62.002777,35.000820 61.913528,35.408104 
	C60.709782,37.216713 59.712524,38.733902 58.461281,40.000099 
	C51.624981,46.918098 44.607807,53.662388 37.927456,60.726135 
	C36.127190,62.629719 35.284470,65.438873 34.002209,67.832352 
	C29.644148,67.870468 25.286087,67.908592 20.466915,67.887955 
	C21.304192,65.752678 22.290983,63.375267 23.955114,61.651913 
	C31.010143,54.345783 38.286472,47.253822 45.430191,40.032413 
	C46.697006,38.751823 47.717762,37.227821 48.922966,35.491936 
	C49.747765,35.096626 50.501743,35.025593 51.629890,34.894066 
z"/>
<path fill="#ED3947" opacity="1.000000" stroke="none" 
	d="
M34.443386,67.891571 
	C35.284470,65.438873 36.127190,62.629719 37.927456,60.726135 
	C44.607807,53.662388 51.624981,46.918098 58.461281,40.000099 
	C59.712524,38.733902 60.709782,37.216713 61.882145,35.489311 
	C64.329353,35.125858 66.718697,35.088474 69.480339,35.433723 
	C68.730789,37.215233 67.722122,38.726002 66.468246,39.994362 
	C59.628586,46.912987 52.610115,53.659927 45.927830,60.725697 
	C44.126949,62.629925 43.283787,65.439888 42.001007,67.834091 
	C39.628860,67.872993 37.256710,67.911896 34.443386,67.891571 
z"/>
<path fill="#EC3744" opacity="1.000000" stroke="none" 
	d="
M42.435623,67.894211 
	C43.283787,65.439888 44.126949,62.629925 45.927830,60.725697 
	C52.610115,53.659927 59.628586,46.912987 66.468246,39.994362 
	C67.722122,38.726002 68.730789,37.215233 69.923706,35.491974 
	C71.065598,35.096565 72.136429,35.025539 73.605576,34.894146 
	C74.754692,34.903431 75.505493,34.973087 76.628799,35.103600 
	C75.981049,36.962673 75.279648,39.069859 73.886940,40.507183 
	C66.757706,47.864777 59.407986,55.008324 52.243366,62.332367 
	C50.921024,63.684132 50.095383,65.521790 49.021942,67.485321 
	C46.959019,67.875092 44.914631,67.914703 42.435623,67.894211 
z"/>
</svg>