<svg version="1.1" id="Layer_1" xmlns="http://www.w3.org/2000/svg" xmlns:xlink="http://www.w3.org/1999/xlink" x="0px" y="0px"
	 width="100%" viewBox="0 0 100 100" enable-background="new 0 0 100 100" xml:space="preserve">
<path fill="none" opacity="1.000000" stroke="none" 
	d="
M62.000000,101.000000 
	C41.333336,101.000000 21.166674,101.000000 1.000008,101.000000 
	C1.000005,67.666679 1.000005,34.333351 1.000003,1.000021 
	C34.333317,1.000014 67.666634,1.000014 100.999969,1.000007 
	C100.999977,34.333313 100.999977,67.666626 100.999985,100.999969 
	C88.166664,101.000000 75.333336,101.000000 62.000000,101.000000 
M90.770767,65.766464 
	C93.630928,55.751354 94.720055,45.777298 89.996330,35.203274 
	C82.142319,17.810061 68.819786,9.086848 49.589741,8.926985 
	C33.799915,8.795720 16.571856,20.811602 11.219481,36.302147 
	C8.431122,46.299984 7.212640,56.258415 12.042861,66.786491 
	C16.568895,77.851997 24.363871,85.527443 35.432487,90.166931 
	C56.709515,99.085335 82.240944,87.927055 90.770767,65.766464 
z"/>
<path fill="#F2F2F4" opacity="1.000000" stroke="none" 
	d="
M90.079285,35.936066 
	C94.720055,45.777298 93.630928,55.751354 90.070770,65.682510 
	C64.176895,65.538483 38.983017,65.473846 13.789101,65.445641 
	C13.181846,65.444962 12.574135,65.850731 11.966637,66.066925 
	C7.212640,56.258415 8.431122,46.299984 11.912670,36.356842 
	C37.820362,36.472092 63.034859,36.537292 88.249397,36.565544 
	C88.859123,36.566227 89.469315,36.155113 90.079285,35.936066 
M47.541859,57.995064 
	C47.541859,57.995064 47.954571,57.998714 47.973152,58.802814 
	C47.780499,62.399967 50.788837,63.038544 52.442924,61.748947 
	C54.821835,59.894257 60.850849,60.992859 59.207592,54.552238 
	C59.493084,54.357513 59.778572,54.162788 60.804394,53.695858 
	C60.557682,51.807972 60.310970,49.920090 59.607063,47.780064 
	C59.382359,47.520336 59.157658,47.260612 59.231846,46.400139 
	C59.395584,45.941895 59.826477,45.363079 59.682369,45.043766 
	C57.947655,41.199898 51.044598,39.435406 45.956440,41.475124 
	C42.143703,43.003555 38.797676,49.778343 40.465683,53.291225 
	C41.610767,55.702827 41.646854,59.485512 45.992664,59.684586 
	C46.371498,59.119534 46.750332,58.554482 47.541859,57.995064 
z"/>
<path fill="#3C9040" opacity="1.000000" stroke="none" 
	d="
M12.004749,66.426712 
	C12.574135,65.850731 13.181846,65.444962 13.789101,65.445641 
	C38.983017,65.473846 64.176895,65.538483 89.705490,65.845657 
	C82.240944,87.927055 56.709515,99.085335 35.432487,90.166931 
	C24.363871,85.527443 16.568895,77.851997 12.004749,66.426712 
z"/>
<path fill="#FF9A05" opacity="1.000000" stroke="none" 
	d="
M90.037811,35.569672 
	C89.469315,36.155113 88.859123,36.566227 88.249397,36.565544 
	C63.034859,36.537292 37.820362,36.472092 12.262877,36.174896 
	C16.571856,20.811602 33.799915,8.795720 49.589741,8.926985 
	C68.819786,9.086848 82.142319,17.810061 90.037811,35.569672 
z"/>
<path fill="#D8D8E8" opacity="1.000000" stroke="none" 
	d="
M45.890358,59.153164 
	C41.646854,59.485512 41.610767,55.702827 40.465683,53.291225 
	C38.797676,49.778343 42.143703,43.003555 45.956440,41.475124 
	C51.044598,39.435406 57.947655,41.199898 59.682369,45.043766 
	C59.826477,45.363079 59.395584,45.941895 58.741661,46.700089 
	C57.566273,46.997829 56.881069,46.995625 55.942619,46.707954 
	C52.524883,46.292423 49.360394,46.162357 45.853615,46.144547 
	C41.832203,47.996689 42.086990,50.923340 43.277473,54.378601 
	C44.281185,55.755783 45.154739,56.847378 46.000866,58.243317 
	C45.945747,58.749496 45.918053,58.951328 45.890358,59.153164 
z"/>
<path fill="#D8D8E8" opacity="1.000000" stroke="none" 
	d="
M58.940109,54.999264 
	C60.850849,60.992859 54.821835,59.894257 52.442924,61.748947 
	C50.788837,63.038544 47.780499,62.399967 47.843597,58.153053 
	C47.471931,57.010582 47.229816,56.517872 47.366966,56.083134 
	C50.560085,55.762684 53.373947,55.384270 56.532555,55.004097 
	C57.564903,55.001316 58.252506,55.000290 58.940109,54.999264 
z"/>
<path fill="#D8D8E8" opacity="1.000000" stroke="none" 
	d="
M59.073853,54.775749 
	C58.252506,55.000290 57.564903,55.001316 56.522449,54.625668 
	C56.177021,51.830471 56.186443,49.411945 56.195869,46.993423 
	C56.881069,46.995625 57.566273,46.997829 58.592213,47.000458 
	C59.157658,47.260612 59.382359,47.520336 59.761238,48.325912 
	C59.964962,50.570526 60.014511,52.269291 60.064060,53.968063 
	C59.778572,54.162788 59.493084,54.357513 59.073853,54.775749 
z"/>
<path fill="#F3F3F4" opacity="1.000000" stroke="none" 
	d="
M46.987701,56.025166 
	C47.229816,56.517872 47.471931,57.010582 47.834309,57.750999 
	C47.954571,57.998714 47.541859,57.995064 47.059387,57.981697 
	C46.394039,57.958542 46.211163,57.948753 46.028290,57.938969 
	C45.154739,56.847378 44.281185,55.755783 43.663364,54.230583 
	C44.157501,53.657696 44.395905,53.518425 44.946075,53.435120 
	C45.834457,54.335777 46.411079,55.180473 46.987701,56.025166 
z"/>
<path fill="#06068A" opacity="1.000000" stroke="none" 
	d="
M60.434227,53.831959 
	C60.014511,52.269291 59.964962,50.570526 59.989838,48.451981 
	C60.310970,49.920090 60.557682,51.807972 60.434227,53.831959 
z"/>
<path fill="#D8D8E8" opacity="1.000000" stroke="none" 
	d="
M46.000866,58.243317 
	C46.211163,57.948753 46.394039,57.958542 46.853039,57.978882 
	C46.750332,58.554482 46.371498,59.119534 45.941513,59.418877 
	C45.918053,58.951328 45.945747,58.749496 46.000866,58.243317 
z"/>
<path fill="#7F7FC1" opacity="1.000000" stroke="none" 
	d="
M47.366966,56.083134 
	C46.411079,55.180473 45.834457,54.335777 44.845276,53.181877 
	C45.020443,50.592552 45.608177,48.312424 46.195908,46.032295 
	C49.360394,46.162357 52.524883,46.292423 55.942619,46.707954 
	C56.186443,49.411945 56.177021,51.830471 56.177704,54.627422 
	C53.373947,55.384270 50.560085,55.762684 47.366966,56.083134 
z"/>
<path fill="#E2E2EC" opacity="1.000000" stroke="none" 
	d="
M45.853615,46.144547 
	C45.608177,48.312424 45.020443,50.592552 44.533508,53.125916 
	C44.395905,53.518425 44.157501,53.657696 43.533203,53.944988 
	C42.086990,50.923340 41.832203,47.996689 45.853615,46.144547 
z"/>
</svg>