<svg version="1.1" id="Layer_1" xmlns="http://www.w3.org/2000/svg" xmlns:xlink="http://www.w3.org/1999/xlink" x="0px" y="0px"
	 width="100%" viewBox="0 0 100 100" enable-background="new 0 0 100 100" xml:space="preserve">
<path fill="none" opacity="1.000000" stroke="none" 
	d="
M62.000000,101.000000 
	C41.333336,101.000000 21.166674,101.000000 1.000008,101.000000 
	C1.000005,67.666679 1.000005,34.333351 1.000003,1.000021 
	C34.333317,1.000014 67.666634,1.000014 100.999969,1.000007 
	C100.999977,34.333313 100.999977,67.666626 100.999985,100.999969 
	C88.166664,101.000000 75.333336,101.000000 62.000000,101.000000 
M53.345821,93.000412 
	C61.802132,92.732193 69.511086,90.044167 76.141823,84.930084 
	C93.495468,71.545799 98.269897,49.505882 88.175758,30.886051 
	C76.581886,9.499785 49.908154,2.603790 29.470169,14.839742 
	C9.278524,26.928213 3.188658,51.742264 13.831854,71.062950 
	C21.931139,85.765656 35.133602,93.448730 53.345821,93.000412 
z"/>
<path fill="#ECEFF1" opacity="1.000000" stroke="none" 
	d="
M52.876114,93.000458 
	C35.133602,93.448730 21.931139,85.765656 13.831854,71.062950 
	C3.188658,51.742264 9.278524,26.928213 29.470169,14.839742 
	C49.908154,2.603790 76.581886,9.499785 88.175758,30.886051 
	C98.269897,49.505882 93.495468,71.545799 76.141823,84.930084 
	C69.511086,90.044167 61.802132,92.732193 52.876114,93.000458 
M63.985313,64.502647 
	C70.908958,56.591957 71.692360,47.632866 66.131172,39.962269 
	C61.069489,32.980640 51.934422,30.344481 43.931561,33.692127 
	C36.621979,36.749775 32.646351,42.485020 32.293869,50.242359 
	C31.949808,57.814507 35.353691,63.838837 42.124096,67.433998 
	C49.667850,71.439819 56.861759,70.350777 63.985313,64.502647 
z"/>
<path fill="#D50505" opacity="1.000000" stroke="none" 
	d="
M63.718967,64.748924 
	C56.861759,70.350777 49.667850,71.439819 42.124096,67.433998 
	C35.353691,63.838837 31.949808,57.814507 32.293869,50.242359 
	C32.646351,42.485020 36.621979,36.749775 43.931561,33.692127 
	C51.934422,30.344481 61.069489,32.980640 66.131172,39.962269 
	C71.692360,47.632866 70.908958,56.591957 63.718967,64.748924 
z"/>
</svg>