<svg version="1.1" id="Layer_1" xmlns="http://www.w3.org/2000/svg" xmlns:xlink="http://www.w3.org/1999/xlink" x="0px" y="0px"
	 width="100%" viewBox="0 0 100 100" enable-background="new 0 0 100 100" xml:space="preserve">
<path fill="none" opacity="1.000000" stroke="none" 
	d="
M61.000000,101.000000 
	C40.666672,101.000000 20.833340,101.000000 1.000008,101.000000 
	C1.000005,67.666679 1.000005,34.333351 1.000003,1.000021 
	C34.333317,1.000014 67.666634,1.000014 100.999969,1.000007 
	C100.999977,34.333313 100.999977,67.666626 100.999985,100.999969 
	C87.833336,101.000000 74.666664,101.000000 61.000000,101.000000 
M11.335668,36.317123 
	C8.225803,46.299194 7.418032,56.235847 11.999248,66.796959 
	C16.507259,77.725609 24.163572,85.427818 35.106953,90.065117 
	C56.082596,98.953629 82.746895,88.055588 90.717384,65.653641 
	C93.871277,55.649704 94.368858,45.707489 89.993179,35.148388 
	C83.877708,21.309536 73.763855,12.889973 58.598076,9.782029 
	C39.204121,5.807599 18.560837,16.896479 11.335668,36.317123 
z"/>
<path fill="#4052B5" opacity="1.000000" stroke="none" 
	d="
M11.922609,66.067696 
	C7.418032,56.235847 8.225803,46.299194 12.117290,36.190590 
	C38.607777,36.001961 64.316635,35.939861 90.025497,35.877762 
	C94.368858,45.707489 93.871277,55.649704 90.043243,65.646149 
	C64.171539,65.580734 38.973969,65.518471 13.776361,65.490265 
	C13.158660,65.489571 12.540536,65.866753 11.922609,66.067696 
z"/>
<path fill="#FB3D04" opacity="1.000000" stroke="none" 
	d="
M11.960928,66.432327 
	C12.540536,65.866753 13.158660,65.489571 13.776361,65.490265 
	C38.973969,65.518471 64.171539,65.580734 89.724258,65.861847 
	C82.746895,88.055588 56.082596,98.953629 35.106953,90.065117 
	C24.163572,85.427818 16.507259,77.725609 11.960928,66.432327 
z"/>
<path fill="#E0E1E2" opacity="1.000000" stroke="none" 
	d="
M90.009338,35.513077 
	C64.316635,35.939861 38.607777,36.001961 12.436794,35.969532 
	C18.560837,16.896479 39.204121,5.807599 58.598076,9.782029 
	C73.763855,12.889973 83.877708,21.309536 90.009338,35.513077 
z"/>
</svg>