<svg version="1.1" id="Layer_1" xmlns="http://www.w3.org/2000/svg" xmlns:xlink="http://www.w3.org/1999/xlink" x="0px" y="0px"
	 width="100%" viewBox="0 0 100 100" enable-background="new 0 0 100 100" xml:space="preserve">
<path fill="none" opacity="1.000000" stroke="none" 
	d="
M64.000000,101.000000 
	C42.666672,101.000000 21.833342,101.000000 1.000008,101.000000 
	C1.000006,67.666679 1.000006,34.333351 1.000003,1.000022 
	C34.333317,1.000015 67.666634,1.000015 100.999969,1.000007 
	C100.999977,34.333309 100.999977,67.666618 100.999985,100.999969 
	C88.833336,101.000000 76.666664,101.000000 64.000000,101.000000 
M9.013752,51.886902 
	C8.522326,59.080151 10.603312,65.732887 14.285220,71.672104 
	C24.826006,88.675247 39.988220,95.382484 59.929100,92.094215 
	C78.318230,89.061821 94.559326,68.905098 92.972496,50.131660 
	C92.381462,46.289658 92.235184,42.313896 91.126511,38.627579 
	C84.426071,16.348652 62.131908,4.488045 40.068439,10.201696 
	C21.450758,15.023012 7.936365,32.593777 9.013752,51.886902 
z"/>
<path fill="#ECEFF1" opacity="1.000000" stroke="none" 
	d="
M92.833473,51.004711 
	C94.559326,68.905098 78.318230,89.061821 59.929100,92.094215 
	C39.988220,95.382484 24.826006,88.675247 14.285220,71.672104 
	C10.603312,65.732887 8.522326,59.080151 9.547784,51.445824 
	C37.665703,51.004734 65.249588,51.004723 92.833473,51.004711 
z"/>
<path fill="#FF3E02" opacity="1.000000" stroke="none" 
	d="
M92.902985,50.568184 
	C65.249588,51.004723 37.665703,51.004734 9.624224,51.004826 
	C7.936365,32.593777 21.450758,15.023012 40.068439,10.201696 
	C62.131908,4.488045 84.426071,16.348652 91.126511,38.627579 
	C92.235184,42.313896 92.381462,46.289658 92.902985,50.568184 
M28.742985,24.071928 
	C23.835207,28.699074 22.643755,33.302586 25.083996,38.209480 
	C27.382397,42.831161 31.944773,45.063953 38.002834,44.250072 
	C32.637390,41.970165 28.778347,38.731014 29.112938,32.715088 
	C29.414700,27.289448 32.968056,24.276133 37.508121,21.504513 
	C34.803188,22.226183 32.098255,22.947853 28.742985,24.071928 
z"/>
<path fill="#EDE2DF" opacity="1.000000" stroke="none" 
	d="
M29.068153,23.870726 
	C32.098255,22.947853 34.803188,22.226183 37.508121,21.504513 
	C32.968056,24.276133 29.414700,27.289448 29.112938,32.715088 
	C28.778347,38.731014 32.637390,41.970165 38.002834,44.250072 
	C31.944773,45.063953 27.382397,42.831161 25.083996,38.209480 
	C22.643755,33.302586 23.835207,28.699074 29.068153,23.870726 
z"/>
</svg>