<svg version="1.1" id="Layer_1" xmlns="http://www.w3.org/2000/svg" xmlns:xlink="http://www.w3.org/1999/xlink" x="0px" y="0px"
	 width="100%" viewBox="0 0 100 100" enable-background="new 0 0 100 100" xml:space="preserve">
<path fill="none" opacity="1.000000" stroke="none" 
	d="
M59.000000,101.000000 
	C39.333336,101.000000 20.166674,101.000000 1.000008,101.000000 
	C1.000005,67.666679 1.000005,34.333351 1.000003,1.000021 
	C34.333317,1.000014 67.666634,1.000014 100.999969,1.000007 
	C100.999977,34.333313 100.999977,67.666626 100.999985,100.999969 
	C87.166664,101.000000 73.333336,101.000000 59.000000,101.000000 
M21.172638,80.699051 
	C22.409189,81.814011 23.645742,82.928963 25.185936,84.694153 
	C29.779562,86.834480 34.373188,88.974808 39.369324,91.820122 
	C43.244511,92.157463 47.119698,92.494812 51.864441,92.985939 
	C55.908417,92.268150 59.952389,91.550362 64.741928,90.975983 
	C66.192841,90.326256 67.660622,89.711510 69.091988,89.021248 
	C79.923668,83.797783 87.338058,75.597954 91.189285,63.273251 
	C91.736855,59.180477 92.284431,55.087704 92.975555,50.127518 
	C92.354584,46.406525 91.733620,42.685532 91.006065,38.202099 
	C89.794128,35.506344 88.582199,32.810585 87.058945,29.549984 
	C85.410378,27.351877 83.761810,25.153770 81.847214,22.332674 
	C79.267693,20.206726 76.688171,18.080778 73.792313,15.297014 
	C69.192421,13.586437 64.592529,11.875859 59.148132,10.005116 
	C58.249191,9.674702 57.371067,9.136970 56.448254,9.044333 
	C35.829491,6.974500 18.342875,18.021864 11.286439,36.553009 
	C8.429859,44.054768 7.587596,52.039444 10.006384,60.773674 
	C12.300800,65.531166 14.595218,70.288658 16.988028,75.726852 
	C18.309517,77.186859 19.631006,78.646873 21.172638,80.699051 
z"/>
<path fill="#D5DEE7" opacity="1.000000" stroke="none" 
	d="
M59.992641,10.165283 
	C64.592529,11.875859 69.192421,13.586437 73.680496,15.826613 
	C68.678635,21.437931 63.701233,26.440111 58.954540,31.652390 
	C57.621464,33.116222 56.966434,35.197533 55.626595,37.002132 
	C54.508373,36.976105 53.763950,36.943565 52.716919,36.729790 
	C42.774464,36.450432 38.395309,40.518612 36.086319,52.037422 
	C36.317299,53.256847 36.587006,54.119930 36.965134,55.203323 
	C37.073551,55.423641 37.245441,55.883675 37.178516,56.147377 
	C37.121292,56.592201 37.130989,56.773315 36.833954,57.106110 
	C34.389225,58.489101 32.251232,59.720421 30.018831,60.631859 
	C28.946795,58.872543 27.969164,57.433109 26.716663,56.035984 
	C26.273222,56.718357 26.104647,57.358418 26.057438,58.299156 
	C25.118937,60.724808 24.059071,62.849789 22.881737,64.717903 
	C22.265461,63.834198 21.766651,63.207363 21.267841,62.580524 
	C20.969706,62.766945 20.671570,62.953362 20.373432,63.139782 
	C20.890373,64.091789 21.407314,65.043793 22.053038,66.291664 
	C22.455769,67.390648 22.729717,68.193764 22.848328,69.288193 
	C20.758535,71.401718 18.824085,73.223930 16.889633,75.046150 
	C14.595218,70.288658 12.300800,65.531166 10.416430,60.330273 
	C14.689451,56.286388 18.469618,52.591095 22.444897,49.119202 
	C25.038452,46.854065 25.805315,44.842056 22.548729,42.975098 
	C23.591810,41.078316 24.437450,39.540573 25.271935,38.023117 
	C24.139105,37.288200 23.249262,36.710926 22.388554,36.152550 
	C24.557259,32.849056 26.501690,29.887196 28.446119,26.925333 
	C28.823410,26.980474 29.200703,27.035616 29.577993,27.090755 
	C29.401442,30.527994 29.224888,33.965233 29.036125,37.640190 
	C32.866123,35.386646 37.194099,33.523060 40.666435,30.631857 
	C45.492126,26.613798 49.748482,21.894255 54.104103,17.336937 
	C56.235184,15.107173 58.040100,12.565685 59.992641,10.165283 
z"/>
<path fill="#DDE7F0" opacity="1.000000" stroke="none" 
	d="
M59.570389,10.085200 
	C58.040100,12.565685 56.235184,15.107173 54.104103,17.336937 
	C49.748482,21.894255 45.492126,26.613798 40.666435,30.631857 
	C37.194099,33.523060 32.866123,35.386646 29.036125,37.640190 
	C29.224888,33.965233 29.401442,30.527994 29.577993,27.090755 
	C29.200703,27.035616 28.823410,26.980474 28.446119,26.925333 
	C26.501690,29.887196 24.557259,32.849056 22.388554,36.152550 
	C23.249262,36.710926 24.139105,37.288200 25.271935,38.023117 
	C24.437450,39.540573 23.591810,41.078316 22.548729,42.975098 
	C25.805315,44.842056 25.038452,46.854065 22.444897,49.119202 
	C18.469618,52.591095 14.689451,56.286388 10.495901,59.939423 
	C7.587596,52.039444 8.429859,44.054768 11.286439,36.553009 
	C18.342875,18.021864 35.829491,6.974500 56.448254,9.044333 
	C57.371067,9.136970 58.249191,9.674702 59.570389,10.085200 
M20.532196,39.265938 
	C21.067402,39.372585 21.602610,39.479229 22.137817,39.585873 
	C22.143614,39.199471 22.149412,38.813065 22.155207,38.426666 
	C21.617437,38.519043 21.079668,38.611420 20.532196,39.265938 
z"/>
<path fill="#C5CFD8" opacity="1.000000" stroke="none" 
	d="
M38.966812,91.115135 
	C34.373188,88.974808 29.779562,86.834480 25.391903,84.317429 
	C33.637081,78.965782 40.289379,72.619766 45.325520,64.460175 
	C47.010002,64.957970 48.361931,65.691162 49.686329,65.644409 
	C58.748550,65.324554 62.879021,61.773472 66.218475,51.963123 
	C69.032944,49.939651 71.497498,47.957859 74.304916,45.922894 
	C75.097588,44.912983 75.547379,43.956249 75.998581,42.999756 
	C76.000000,43.000000 75.999626,42.997280 76.336006,42.950348 
	C77.444023,41.926155 78.215660,40.948895 78.989410,39.669327 
	C78.988922,38.965584 78.986313,38.564144 79.221130,37.997597 
	C79.712273,37.541500 79.965973,37.250515 80.552521,36.907578 
	C83.046997,34.608692 85.208626,32.361759 87.370262,30.114830 
	C88.582199,32.810585 89.794128,35.506344 90.710419,38.633736 
	C84.946198,44.697289 79.477638,50.329201 73.959595,56.207062 
	C73.883179,56.618073 73.856232,56.783134 73.483841,56.974617 
	C71.877869,57.715878 70.388161,58.198578 69.392441,59.181625 
	C59.932320,68.521347 50.532379,77.922623 41.190521,87.380661 
	C40.202122,88.381355 39.696438,89.858841 38.966812,91.115135 
z"/>
<path fill="#BBC5CE" opacity="1.000000" stroke="none" 
	d="
M73.829292,56.948196 
	C73.856232,56.783134 73.883179,56.618073 74.290283,56.282944 
	C74.451180,58.533031 74.231918,60.953186 73.968918,63.855953 
	C75.344917,61.915955 76.451805,60.355373 77.558693,58.794792 
	C77.775002,59.178940 77.991302,59.563084 78.207611,59.947231 
	C80.371284,58.898643 82.646088,58.027458 84.671776,56.758579 
	C87.489639,54.993484 90.120880,52.930439 92.832001,50.994930 
	C92.284431,55.087704 91.736855,59.180477 90.680801,63.690788 
	C82.226898,71.793732 74.256264,79.453423 66.367355,87.196404 
	C65.358887,88.186211 64.776268,89.609886 63.996361,90.832565 
	C59.952389,91.550362 55.908417,92.268150 51.441269,92.556061 
	C52.079983,90.516266 52.944775,88.723282 54.239418,87.329605 
	C58.746555,82.477684 63.402584,77.764076 68.143066,72.900841 
	C68.190590,72.537071 68.097054,72.270355 67.794342,71.741867 
	C67.416100,70.276306 66.705917,68.779778 67.171448,67.919327 
	C69.204491,64.161530 71.578842,60.588379 73.829292,56.948196 
M71.963501,65.332375 
	C72.070473,65.799950 72.177444,66.267525 72.284409,66.735100 
	C72.660774,66.526176 73.037140,66.317253 73.413498,66.108322 
	C73.108948,65.808487 72.804405,65.508652 71.963501,65.332375 
z"/>
<path fill="#C1CBD4" opacity="1.000000" stroke="none" 
	d="
M68.002007,72.997887 
	C63.402584,77.764076 58.746555,82.477684 54.239418,87.329605 
	C52.944775,88.723282 52.079983,90.516266 51.006493,92.479172 
	C47.119698,92.494812 43.244511,92.157463 39.168068,91.467628 
	C39.696438,89.858841 40.202122,88.381355 41.190521,87.380661 
	C50.532379,77.922623 59.932320,68.521347 69.392441,59.181625 
	C70.388161,58.198578 71.877869,57.715878 73.483841,56.974617 
	C71.578842,60.588379 69.204491,64.161530 67.171448,67.919327 
	C66.705917,68.779778 67.416100,70.276306 67.793060,71.990402 
	C68.000946,72.500702 68.002007,72.997887 68.002007,72.997887 
z"/>
<path fill="#D1D9E2" opacity="1.000000" stroke="none" 
	d="
M56.000389,36.995613 
	C56.966434,35.197533 57.621464,33.116222 58.954540,31.652390 
	C63.701233,26.440111 68.678635,21.437931 73.838669,16.155521 
	C76.688171,18.080778 79.267693,20.206726 81.677719,22.797771 
	C79.345345,24.835262 77.182465,26.407658 74.780907,27.738800 
	C69.580750,27.743393 69.227402,28.507805 71.983368,33.272133 
	C71.985046,33.507366 71.977509,33.977787 71.688080,34.016518 
	C70.932678,34.372787 70.466698,34.690323 69.738693,35.132488 
	C68.986443,35.837379 68.496216,36.417645 67.849625,37.290169 
	C66.104446,39.105907 64.515625,40.629391 62.640903,41.980782 
	C60.236794,40.204334 58.118591,38.599976 56.000389,36.995613 
z"/>
<path fill="#CED7E1" opacity="1.000000" stroke="none" 
	d="
M44.980225,64.334679 
	C40.289379,72.619766 33.637081,78.965782 25.240082,83.992310 
	C23.645742,82.928963 22.409189,81.814011 21.217033,80.102760 
	C23.168283,78.004822 25.075136,76.503174 27.322693,74.996704 
	C29.520731,71.910622 32.873810,71.110451 37.445305,69.487862 
	C34.296024,67.217430 32.110226,65.641609 29.615913,64.044403 
	C28.895218,64.016716 28.483042,64.010429 28.055759,63.737778 
	C28.022167,63.294525 28.003681,63.117630 27.989826,62.716557 
	C27.994457,62.492374 27.997337,62.043922 28.306322,62.008476 
	C29.114616,61.632599 29.613926,61.292171 30.113235,60.951740 
	C32.251232,59.720421 34.389225,58.489101 37.188629,57.243362 
	C38.243946,57.164356 38.637848,57.099770 39.029182,57.003761 
	C39.026608,56.972340 38.963570,56.970997 38.693676,57.276863 
	C40.173538,59.449268 41.923290,61.315807 43.845211,63.420856 
	C44.338329,63.884468 44.659275,64.109573 44.980225,64.334679 
z"/>
<path fill="#C1CBD4" opacity="1.000000" stroke="none" 
	d="
M92.903778,50.561226 
	C90.120880,52.930439 87.489639,54.993484 84.671776,56.758579 
	C82.646088,58.027458 80.371284,58.898643 78.207611,59.947231 
	C77.991302,59.563084 77.775002,59.178940 77.558693,58.794792 
	C76.451805,60.355373 75.344917,61.915955 73.968918,63.855953 
	C74.231918,60.953186 74.451180,58.533031 74.339760,56.036995 
	C79.477638,50.329201 84.946198,44.697289 90.763710,39.014957 
	C91.733620,42.685532 92.354584,46.406525 92.903778,50.561226 
z"/>
<path fill="#B8C1CA" opacity="1.000000" stroke="none" 
	d="
M64.369148,90.904274 
	C64.776268,89.609886 65.358887,88.186211 66.367355,87.196404 
	C74.256264,79.453423 82.226898,71.793732 90.502350,64.052376 
	C87.338058,75.597954 79.923668,83.797783 69.091988,89.021248 
	C67.660622,89.711510 66.192841,90.326256 64.369148,90.904274 
z"/>
<path fill="#C8D2DB" opacity="1.000000" stroke="none" 
	d="
M75.019577,27.980049 
	C77.182465,26.407658 79.345345,24.835262 81.810730,23.109266 
	C83.761810,25.153770 85.410378,27.351877 87.214600,29.832405 
	C85.208626,32.361759 83.046997,34.608692 80.437729,36.573723 
	C78.333252,33.521233 76.676414,30.750641 75.019577,27.980049 
z"/>
<path fill="#CED8E1" opacity="1.000000" stroke="none" 
	d="
M26.981987,75.001526 
	C25.075136,76.503174 23.168283,78.004822 21.106964,79.806671 
	C19.631006,78.646873 18.309517,77.186859 16.938831,75.386505 
	C18.824085,73.223930 20.758535,71.401718 23.140675,69.460968 
	C24.719570,71.228806 25.850780,73.115166 26.981987,75.001526 
z"/>
<path fill="#EC4552" opacity="1.000000" stroke="none" 
	d="
M55.626595,37.002129 
	C58.118591,38.599976 60.236794,40.204334 62.692471,42.306229 
	C63.011372,43.228718 62.992798,43.653675 62.563286,44.268227 
	C54.744225,42.905277 52.425625,44.393738 50.886192,51.443615 
	C50.541496,53.022171 49.691402,54.490368 48.819740,56.117546 
	C48.002430,56.694099 47.439362,57.162479 46.473686,57.720940 
	C43.701908,57.531013 41.332737,57.251003 38.963570,56.970993 
	C38.963570,56.970997 39.026608,56.972340 38.969307,56.704784 
	C38.356483,56.252712 37.800964,56.068195 37.245441,55.883675 
	C37.245441,55.883675 37.073551,55.423641 37.004974,54.835575 
	C36.921371,53.509521 36.906353,52.771530 37.241425,51.982807 
	C42.734188,46.925056 47.876858,41.918037 53.019524,36.911026 
	C53.763950,36.943565 54.508373,36.976105 55.626595,37.002129 
z"/>
<path fill="#F24F5A" opacity="1.000000" stroke="none" 
	d="
M52.716919,36.729786 
	C47.876858,41.918037 42.734188,46.925056 37.047363,51.900146 
	C36.503201,51.868225 36.125053,51.681076 36.125053,51.681076 
	C38.395309,40.518612 42.774464,36.450432 52.716919,36.729786 
z"/>
<path fill="#C5CFD8" opacity="1.000000" stroke="none" 
	d="
M27.322693,74.996704 
	C25.850780,73.115166 24.719570,71.228806 23.296013,69.169662 
	C22.729717,68.193764 22.455769,67.390648 22.276197,66.171097 
	C22.580116,65.494690 22.789661,65.234734 22.999207,64.974770 
	C24.059071,62.849789 25.118937,60.724808 26.296089,58.120918 
	C26.606094,57.092567 26.798815,56.543121 26.991533,55.993675 
	C27.969164,57.433109 28.946795,58.872543 30.018831,60.631859 
	C29.613926,61.292171 29.114616,61.632599 28.164459,62.087776 
	C27.518969,62.523689 27.609495,62.769760 27.985193,62.940739 
	C28.003681,63.117630 28.022167,63.294525 28.080725,64.029419 
	C28.704046,64.978172 29.287296,65.368927 29.870548,65.759682 
	C29.888508,65.195053 29.906469,64.630417 29.924431,64.065788 
	C32.110226,65.641609 34.296024,67.217430 37.445305,69.487862 
	C32.873810,71.110451 29.520731,71.910622 27.322693,74.996704 
z"/>
<path fill="#CED8E1" opacity="1.000000" stroke="none" 
	d="
M22.881739,64.717903 
	C22.789661,65.234734 22.580116,65.494690 22.147413,65.875229 
	C21.407314,65.043793 20.890373,64.091789 20.373432,63.139782 
	C20.671570,62.953362 20.969706,62.766945 21.267841,62.580524 
	C21.766651,63.207363 22.265461,63.834198 22.881739,64.717903 
z"/>
<path fill="#CED7E1" opacity="1.000000" stroke="none" 
	d="
M26.716663,56.035984 
	C26.798815,56.543121 26.606094,57.092567 26.174723,57.820248 
	C26.104647,57.358418 26.273222,56.718357 26.716663,56.035984 
z"/>
<path fill="#CED7E1" opacity="1.000000" stroke="none" 
	d="
M36.086319,52.037422 
	C36.125053,51.681076 36.503201,51.868225 36.697266,51.950882 
	C36.906353,52.771530 36.921371,53.509521 36.896553,54.615257 
	C36.587006,54.119930 36.317299,53.256847 36.086319,52.037422 
z"/>
<path fill="#1860A1" opacity="1.000000" stroke="none" 
	d="
M37.178516,56.147377 
	C37.800964,56.068195 38.356483,56.252712 38.971878,56.736206 
	C38.637848,57.099770 38.243946,57.164356 37.495365,57.091686 
	C37.130989,56.773315 37.121292,56.592201 37.178516,56.147377 
z"/>
<path fill="#D5DEE7" opacity="1.000000" stroke="none" 
	d="
M20.537046,38.984871 
	C21.079668,38.611420 21.617437,38.519043 22.155209,38.426666 
	C22.149412,38.813065 22.143614,39.199471 22.137817,39.585873 
	C21.602610,39.479229 21.067402,39.372585 20.537046,38.984871 
z"/>
<path fill="#165C9B" opacity="1.000000" stroke="none" 
	d="
M46.876297,57.630859 
	C47.439362,57.162479 48.002430,56.694099 49.186539,56.106400 
	C54.536167,52.991306 59.264748,49.995537 64.273239,47.198124 
	C64.991608,48.932587 65.430084,50.468693 65.868553,52.004803 
	C62.879021,61.773472 58.748550,65.324554 49.686329,65.644409 
	C48.361931,65.691162 47.010002,64.957970 45.325520,64.460175 
	C44.659275,64.109573 44.338329,63.884468 44.146835,63.211456 
	C45.142956,61.052650 46.009628,59.341755 46.876297,57.630859 
z"/>
<path fill="#C8D0D9" opacity="1.000000" stroke="none" 
	d="
M66.218475,51.963123 
	C65.430084,50.468693 64.991608,48.932587 64.243233,46.951462 
	C63.933331,46.506451 63.817017,46.023235 63.886093,45.696621 
	C63.614349,44.915611 63.273525,44.461216 62.964832,44.012177 
	C62.996964,44.017532 62.974228,44.078629 62.974228,44.078629 
	C62.992798,43.653675 63.011372,43.228718 62.978374,42.478317 
	C64.515625,40.629391 66.104446,39.105907 68.140648,37.459560 
	C70.382339,39.214188 72.176651,41.091686 73.984924,42.983696 
	C73.998894,42.998215 74.027039,43.027058 74.011612,43.395561 
	C73.984802,44.501404 73.973419,45.238735 73.962036,45.976070 
	C71.497498,47.957859 69.032944,49.939651 66.218475,51.963123 
z"/>
<path fill="#C1CBD4" opacity="1.000000" stroke="none" 
	d="
M74.780907,27.738800 
	C76.676414,30.750641 78.333252,33.521233 80.104874,36.625679 
	C79.965973,37.250515 79.712273,37.541500 78.875107,37.995960 
	C77.095047,38.362595 75.898460,38.565758 76.023392,38.544548 
	C75.601715,36.672009 75.300858,35.336002 74.949814,33.707180 
	C73.926979,33.288540 72.954330,33.162720 71.981682,33.036900 
	C69.227402,28.507805 69.580750,27.743393 74.780907,27.738800 
z"/>
<path fill="#C8D0D9" opacity="1.000000" stroke="none" 
	d="
M75.000000,34.000000 
	C75.300858,35.336002 75.601715,36.672009 76.023392,38.544548 
	C75.898460,38.565758 77.095047,38.362595 78.637665,38.161072 
	C78.986313,38.564144 78.988922,38.965584 78.654739,39.721039 
	C77.545181,41.049129 76.772400,42.023201 75.999619,42.997276 
	C75.999626,42.997280 76.000000,43.000000 75.670074,42.997356 
	C74.902451,43.005497 74.464745,43.016277 74.027039,43.027058 
	C74.027039,43.027058 73.998894,42.998215 73.986626,42.623177 
	C72.649811,39.834713 71.325264,37.421288 70.000717,35.007858 
	C70.466698,34.690323 70.932678,34.372787 71.696007,34.024323 
	C71.993355,33.993397 71.998955,33.999069 72.062134,34.320831 
	C73.083542,34.428398 74.041771,34.214199 75.000000,34.000000 
z"/>
<path fill="#C1CBD4" opacity="1.000000" stroke="none" 
	d="
M76.335999,42.950348 
	C76.772400,42.023201 77.545181,41.049129 78.652626,40.023346 
	C78.215660,40.948895 77.444023,41.926155 76.335999,42.950348 
z"/>
<path fill="#C1CBD4" opacity="1.000000" stroke="none" 
	d="
M74.011612,43.395561 
	C74.464745,43.016277 74.902451,43.005497 75.668663,42.997116 
	C75.547379,43.956249 75.097588,44.912983 74.304916,45.922894 
	C73.973419,45.238735 73.984802,44.501404 74.011612,43.395561 
z"/>
<path fill="#C1CBD4" opacity="1.000000" stroke="none" 
	d="
M72.231674,65.270599 
	C72.804405,65.508652 73.108948,65.808487 73.413498,66.108322 
	C73.037140,66.317253 72.660774,66.526176 72.284409,66.735100 
	C72.177444,66.267525 72.070473,65.799950 72.231674,65.270599 
z"/>
<path fill="#B8C1CA" opacity="1.000000" stroke="none" 
	d="
M68.143066,72.900841 
	C68.002007,72.997887 68.000946,72.500702 68.002228,72.252167 
	C68.097054,72.270355 68.190590,72.537071 68.143066,72.900841 
z"/>
<path fill="#C1CBD4" opacity="1.000000" stroke="none" 
	d="
M69.738693,35.132488 
	C71.325264,37.421288 72.649811,39.834713 73.972656,42.608658 
	C72.176651,41.091686 70.382339,39.214188 68.297012,37.167301 
	C68.496216,36.417645 68.986443,35.837379 69.738693,35.132488 
z"/>
<path fill="#C8D0D9" opacity="1.000000" stroke="none" 
	d="
M71.983368,33.272133 
	C72.954330,33.162720 73.926979,33.288540 74.574722,33.701729 
	C73.499527,33.992420 72.749245,33.995743 71.998955,33.999069 
	C71.998955,33.999069 71.993355,33.993397 71.985428,33.985592 
	C71.977509,33.977787 71.985046,33.507366 71.983368,33.272133 
z"/>
<path fill="#1860A1" opacity="1.000000" stroke="none" 
	d="
M46.473686,57.720940 
	C46.009628,59.341755 45.142956,61.052650 43.974663,62.972946 
	C41.923290,61.315807 40.173538,59.449268 38.693676,57.276863 
	C41.332737,57.251003 43.701908,57.531013 46.473686,57.720940 
z"/>
<path fill="#CED8E1" opacity="1.000000" stroke="none" 
	d="
M29.615913,64.044403 
	C29.906469,64.630417 29.888508,65.195053 29.870548,65.759682 
	C29.287296,65.368927 28.704046,64.978172 28.095829,64.295776 
	C28.483042,64.010429 28.895218,64.016716 29.615913,64.044403 
z"/>
<path fill="#CED8E1" opacity="1.000000" stroke="none" 
	d="
M27.989826,62.716557 
	C27.609495,62.769760 27.518969,62.523689 27.855476,62.123222 
	C27.997337,62.043922 27.994457,62.492374 27.989826,62.716557 
z"/>
<path fill="#1860A1" opacity="1.000000" stroke="none" 
	d="
M63.817017,46.023235 
	C63.817017,46.023235 63.933331,46.506451 63.963333,46.753113 
	C59.264748,49.995537 54.536167,52.991306 49.440784,55.998222 
	C49.691402,54.490368 50.541496,53.022171 50.886192,51.443615 
	C52.425625,44.393738 54.744225,42.905277 62.563290,44.268227 
	C62.974228,44.078629 62.996964,44.017532 62.697357,44.256336 
	C62.870838,45.004505 63.343929,45.513870 63.817017,46.023235 
z"/>
<path fill="#EC4552" opacity="1.000000" stroke="none" 
	d="
M63.886093,45.696621 
	C63.343929,45.513870 62.870838,45.004505 62.665226,44.250980 
	C63.273525,44.461216 63.614349,44.915611 63.886093,45.696621 
z"/>
<path fill="#C1CBD4" opacity="1.000000" stroke="none" 
	d="
M72.062134,34.320831 
	C72.749245,33.995743 73.499527,33.992420 74.624908,33.994549 
	C74.041771,34.214199 73.083542,34.428398 72.062134,34.320831 
z"/>
</svg>