<svg version="1.1" id="Layer_1" xmlns="http://www.w3.org/2000/svg" xmlns:xlink="http://www.w3.org/1999/xlink" x="0px" y="0px"
	 width="100%" viewBox="0 0 100 100" enable-background="new 0 0 100 100" xml:space="preserve">
<path fill="none" opacity="1.000000" stroke="none" 
	d="
M59.000000,101.000000 
	C39.333336,101.000000 20.166674,101.000000 1.000008,101.000000 
	C1.000005,67.666679 1.000005,34.333351 1.000003,1.000021 
	C34.333317,1.000014 67.666634,1.000014 100.999969,1.000007 
	C100.999977,34.333313 100.999977,67.666626 100.999985,100.999969 
	C87.166664,101.000000 73.333336,101.000000 59.000000,101.000000 
M83.715149,24.214991 
	C77.749428,17.363123 70.442291,12.612693 61.026188,10.044191 
	C59.798008,9.749804 58.569832,9.455418 56.373505,9.029854 
	C52.465752,9.074059 48.558002,9.118263 44.117176,9.534433 
	C42.852131,9.739929 41.587082,9.945426 39.552219,10.152046 
	C31.684813,13.200388 24.210485,16.839949 18.325150,24.114401 
	C16.937757,26.390173 15.550364,28.665947 13.892146,31.592606 
	C13.216720,33.049541 12.541293,34.506474 11.180057,36.287060 
	C10.507103,39.043530 9.834149,41.800003 9.029818,45.540092 
	C9.073312,49.504738 9.116806,53.469383 9.644047,57.974251 
	C11.007960,61.963726 12.371874,65.953201 13.974835,70.609314 
	C14.952388,72.097252 15.929940,73.585190 16.972870,75.720657 
	C17.607201,76.501678 18.241531,77.282692 19.194294,78.660461 
	C24.861410,85.262001 32.061848,89.407677 40.974350,91.955460 
	C42.202160,92.249863 43.429970,92.544258 45.625946,92.969986 
	C49.533482,92.926086 53.441021,92.882187 57.882015,92.469040 
	C59.143936,92.261726 60.405857,92.054420 62.436352,91.819550 
	C70.879837,88.746819 78.497261,84.457916 84.697624,76.851418 
	C85.852310,74.905975 87.006989,72.960526 88.743004,70.645226 
	C89.442940,68.633652 90.142876,66.622078 91.006958,63.813629 
	C91.618515,61.679485 92.230072,59.545341 92.970322,56.431465 
	C92.926895,52.476288 92.883469,48.521107 92.353683,44.022163 
	C91.183136,40.404045 90.012589,36.785923 88.895393,32.566082 
	C87.931114,30.983309 86.966835,29.400537 85.777878,27.213627 
	C85.184639,26.407986 84.591400,25.602343 83.715149,24.214991 
z"/>
<path fill="#E53935" opacity="1.000000" stroke="none" 
	d="
M92.840042,44.565929 
	C92.883469,48.521107 92.926895,52.476288 92.449249,56.860546 
	C80.435692,57.289627 68.943207,57.289627 57.348557,57.289627 
	C57.348557,69.690613 57.348557,81.264450 57.348557,92.838287 
	C53.441021,92.882187 49.533482,92.926086 45.190586,92.447098 
	C44.755226,80.433784 44.755226,68.943359 44.755226,57.434029 
	C32.307903,57.434029 20.734102,57.434029 9.160301,57.434029 
	C9.116806,53.469383 9.073312,49.504738 9.551323,45.117432 
	C21.564281,44.694775 33.055737,44.694775 44.650249,44.694775 
	C44.650249,32.308708 44.650249,20.735588 44.650249,9.162468 
	C48.558002,9.118263 52.465752,9.074059 56.808640,9.552673 
	C57.243771,21.566212 57.243771,33.056931 57.243771,44.565929 
	C69.692009,44.565929 81.266029,44.565929 92.840042,44.565929 
z"/>
<path fill="#F9F1F3" opacity="1.000000" stroke="none" 
	d="
M44.383713,9.348451 
	C44.650249,20.735588 44.650249,32.308708 44.650249,44.694775 
	C33.055737,44.694775 21.564281,44.694775 9.617012,44.625626 
	C9.834149,41.800003 10.507103,39.043530 11.724107,36.415932 
	C17.239725,40.394367 22.641430,42.127659 29.919840,40.029758 
	C24.100744,36.673496 19.131859,33.807610 14.162972,30.941719 
	C15.550364,28.665947 16.937757,26.390173 18.972492,24.111994 
	C26.269243,28.153364 32.918652,32.197140 40.322037,36.699444 
	C40.322037,27.028303 40.322037,18.589613 40.322037,10.150923 
	C41.587082,9.945426 42.852131,9.739929 44.383713,9.348451 
z"/>
<path fill="#F8F0F3" opacity="1.000000" stroke="none" 
	d="
M57.615288,92.653664 
	C57.348557,81.264450 57.348557,69.690613 57.348557,57.289627 
	C68.943207,57.289627 80.435692,57.289627 92.384903,57.350414 
	C92.230072,59.545341 91.618515,61.679485 90.581604,64.052139 
	C85.752998,60.529510 80.615318,60.786736 73.908745,61.522228 
	C77.129181,63.501377 79.328117,64.757690 81.424446,66.166664 
	C83.719604,67.709282 85.919991,69.392906 88.161682,71.015076 
	C87.006989,72.960526 85.852310,74.905975 84.068832,76.824631 
	C76.436378,72.487160 69.432701,68.176483 61.667782,63.397266 
	C61.667782,73.592354 61.667782,82.719734 61.667782,91.847107 
	C60.405857,92.054420 59.143936,92.261726 57.615288,92.653664 
z"/>
<path fill="#F8EEF1" opacity="1.000000" stroke="none" 
	d="
M9.402174,57.704140 
	C20.734102,57.434029 32.307903,57.434029 44.755226,57.434029 
	C44.755226,68.943359 44.755226,80.433784 44.706505,92.381432 
	C43.429970,92.544258 42.202160,92.249863 40.648403,91.443771 
	C40.322456,82.465454 40.322456,73.998833 40.322456,64.584824 
	C32.488083,69.508621 25.681973,73.786171 18.875862,78.063713 
	C18.241531,77.282692 17.607201,76.501678 17.201637,75.170288 
	C23.889439,70.469467 30.348475,66.319023 37.224667,61.900524 
	C26.652096,58.731152 20.595247,65.389908 13.735788,69.942680 
	C12.371874,65.953201 11.007960,61.963726 9.402174,57.704140 
z"/>
<path fill="#F7EEF1" opacity="1.000000" stroke="none" 
	d="
M92.596863,44.294044 
	C81.266029,44.565929 69.692009,44.565929 57.243771,44.565929 
	C57.243771,33.056931 57.243771,21.566212 57.292709,9.618261 
	C58.569832,9.455418 59.798008,9.749804 61.352150,10.556063 
	C61.678116,19.704182 61.678116,28.340431 61.678116,37.793835 
	C69.822479,33.051308 76.910316,28.924004 83.998161,24.796700 
	C84.591400,25.602343 85.184639,26.407986 85.559662,27.640974 
	C79.031883,31.960457 72.722321,35.852592 65.606819,40.241879 
	C73.145607,41.913551 78.481789,40.337051 83.325935,36.529221 
	C85.006798,35.207951 86.994492,34.277020 88.842041,33.167801 
	C90.012589,36.785923 91.183136,40.404045 92.596863,44.294044 
z"/>
<path fill="#4052B6" opacity="1.000000" stroke="none" 
	d="
M62.052067,91.833328 
	C61.667782,82.719734 61.667782,73.592354 61.667782,63.397266 
	C69.432701,68.176483 76.436378,72.487160 83.747269,76.966858 
	C78.497261,84.457916 70.879837,88.746819 62.052067,91.833328 
z"/>
<path fill="#4152B6" opacity="1.000000" stroke="none" 
	d="
M83.856659,24.505844 
	C76.910316,28.924004 69.822479,33.051308 61.678116,37.793835 
	C61.678116,28.340431 61.678116,19.704182 61.677372,10.607566 
	C70.442291,12.612693 77.749428,17.363123 83.856659,24.505844 
z"/>
<path fill="#4052B6" opacity="1.000000" stroke="none" 
	d="
M19.035078,78.362091 
	C25.681973,73.786171 32.488083,69.508621 40.322456,64.584824 
	C40.322456,73.998833 40.322456,82.465454 40.323235,91.392456 
	C32.061848,89.407677 24.861410,85.262001 19.035078,78.362091 
z"/>
<path fill="#4052B5" opacity="1.000000" stroke="none" 
	d="
M39.937126,10.151484 
	C40.322037,18.589613 40.322037,27.028303 40.322037,36.699444 
	C32.918652,32.197140 26.269243,28.153364 19.294258,23.973473 
	C24.210485,16.839949 31.684813,13.200388 39.937126,10.151484 
z"/>
<path fill="#E6423E" opacity="1.000000" stroke="none" 
	d="
M13.855312,70.276001 
	C20.595247,65.389908 26.652096,58.731152 37.224667,61.900524 
	C30.348475,66.319023 23.889439,70.469467 17.168949,74.846519 
	C15.929940,73.585190 14.952388,72.097252 13.855312,70.276001 
z"/>
<path fill="#E6423E" opacity="1.000000" stroke="none" 
	d="
M88.868713,32.866943 
	C86.994492,34.277020 85.006798,35.207951 83.325935,36.529221 
	C78.481789,40.337051 73.145607,41.913551 65.606819,40.241879 
	C72.722321,35.852592 79.031883,31.960457 85.671997,27.943043 
	C86.966835,29.400537 87.931114,30.983309 88.868713,32.866943 
z"/>
<path fill="#E64440" opacity="1.000000" stroke="none" 
	d="
M14.027559,31.267162 
	C19.131859,33.807610 24.100744,36.673496 29.919840,40.029758 
	C22.641430,42.127659 17.239725,40.394367 12.067012,36.254105 
	C12.541293,34.506474 13.216720,33.049541 14.027559,31.267162 
z"/>
<path fill="#E64642" opacity="1.000000" stroke="none" 
	d="
M88.452347,70.830154 
	C85.919991,69.392906 83.719604,67.709282 81.424446,66.166664 
	C79.328117,64.757690 77.129181,63.501377 73.908745,61.522228 
	C80.615318,60.786736 85.752998,60.529510 90.499535,64.450577 
	C90.142876,66.622078 89.442940,68.633652 88.452347,70.830154 
z"/>
</svg>