<svg version="1.1" id="Layer_1" xmlns="http://www.w3.org/2000/svg" xmlns:xlink="http://www.w3.org/1999/xlink" x="0px" y="0px"
	 width="100%" viewBox="0 0 100 100" enable-background="new 0 0 100 100" xml:space="preserve">
<path fill="none" opacity="1.000000" stroke="none" 
	d="
M60.000000,101.000000 
	C40.000004,101.000000 20.500008,101.000000 1.000008,101.000000 
	C1.000005,67.666679 1.000005,34.333351 1.000003,1.000021 
	C34.333317,1.000014 67.666634,1.000014 100.999969,1.000007 
	C100.999977,34.333313 100.999977,67.666626 100.999985,100.999969 
	C87.500000,101.000000 74.000000,101.000000 60.000000,101.000000 
M75.055534,16.587921 
	C71.183197,14.786577 67.310867,12.985232 62.887810,10.528842 
	C33.974861,2.097569 5.960918,26.112314 9.030104,55.956642 
	C9.404952,57.783169 9.779799,59.609692 10.042933,62.118423 
	C11.019361,64.124344 11.995787,66.130272 13.002089,68.851524 
	C14.000395,70.620911 14.998702,72.390289 16.271263,74.775116 
	C17.893679,76.653381 19.516094,78.531647 21.529831,80.887527 
	C24.225771,82.881065 26.921713,84.874603 30.063812,87.489662 
	C44.285812,95.161057 58.400036,95.495590 73.053612,86.937813 
	C75.655838,84.762512 78.258064,82.587212 81.442390,80.010651 
	C82.962616,78.060181 84.482849,76.109718 86.656273,73.856384 
	C87.446831,71.949471 88.237389,70.042564 89.655563,67.805725 
	C90.385498,65.682526 91.115433,63.559326 91.983055,60.611557 
	C92.267921,58.794216 92.552788,56.976879 92.974617,54.280743 
	C92.928894,52.507435 92.883171,50.734127 92.981445,48.133488 
	C92.643166,46.339909 92.304893,44.546333 92.002495,41.995026 
	C91.342278,39.951576 90.682060,37.908127 90.006424,35.151035 
	C89.015915,33.389042 88.025406,31.627050 86.989449,29.167583 
	C85.646523,27.363573 84.303589,25.559563 82.676453,23.185087 
	C80.303329,21.179768 77.930214,19.174448 75.055534,16.587921 
z"/>
<path fill="#4A5BB9" opacity="1.000000" stroke="none" 
	d="
M9.157199,55.150978 
	C5.960918,26.112314 33.974861,2.097569 63.107025,11.273509 
	C63.414898,13.970502 63.503555,15.922829 63.479027,18.297472 
	C63.424232,20.461042 63.482620,22.202297 63.436745,24.378996 
	C63.427029,26.593489 63.521580,28.372538 63.514267,30.573971 
	C63.485485,32.725506 63.558563,34.454659 63.517502,36.591419 
	C63.477837,38.960178 63.552315,40.921322 63.503456,43.302479 
	C63.437840,45.461887 63.495556,47.201286 63.445328,49.354767 
	C63.305325,51.478893 63.273266,53.188938 62.760746,54.959610 
	C44.572590,55.063816 26.864895,55.107395 9.157199,55.150978 
z"/>
<path fill="#F34C3F" opacity="1.000000" stroke="none" 
	d="
M12.972214,68.136192 
	C11.995787,66.130272 11.019361,64.124344 10.549868,61.685875 
	C26.852827,61.204422 42.648930,61.102135 58.444851,61.124767 
	C69.578484,61.140717 80.711868,61.326290 91.845367,61.436127 
	C91.115433,63.559326 90.385498,65.682526 88.877136,67.892258 
	C63.056549,68.031250 38.014381,68.083725 12.972214,68.136192 
z"/>
<path fill="#EBECEE" opacity="1.000000" stroke="none" 
	d="
M91.914215,61.023842 
	C80.711868,61.326290 69.578484,61.140717 58.444851,61.124767 
	C42.648930,61.102135 26.852827,61.204422 10.605724,61.344772 
	C9.779799,59.609692 9.404952,57.783169 9.093651,55.553810 
	C26.864895,55.107395 44.572590,55.063816 63.207115,55.040997 
	C73.701851,55.094353 83.269760,55.126949 92.837662,55.159542 
	C92.552788,56.976879 92.267921,58.794216 91.914215,61.023842 
z"/>
<path fill="#ECEDEF" opacity="1.000000" stroke="none" 
	d="
M12.987152,68.493858 
	C38.014381,68.083725 63.056549,68.031250 88.563324,68.057220 
	C88.237389,70.042564 87.446831,71.949471 85.866875,73.930054 
	C62.050652,74.055710 39.023830,74.107697 15.997007,74.159676 
	C14.998702,72.390289 14.000395,70.620911 12.987152,68.493858 
z"/>
<path fill="#F44336" opacity="1.000000" stroke="none" 
	d="
M16.134134,74.467392 
	C39.023830,74.107697 62.050652,74.055710 85.540283,74.081490 
	C84.482849,76.109718 82.962616,78.060181 80.697166,80.129791 
	C60.347466,80.302589 40.742989,80.356247 21.138512,80.409904 
	C19.516094,78.531647 17.893679,76.653381 16.134134,74.467392 
z"/>
<path fill="#ECE7E8" opacity="1.000000" stroke="none" 
	d="
M21.334171,80.648712 
	C40.742989,80.356247 60.347466,80.302589 80.406113,80.330429 
	C78.258064,82.587212 75.655838,84.762512 72.361008,86.637970 
	C60.902241,86.270218 50.135918,86.142082 39.370014,86.170891 
	C36.118629,86.179588 32.868408,86.623558 29.617655,86.868149 
	C26.921713,84.874603 24.225771,82.881065 21.334171,80.648712 
z"/>
<path fill="#F3493D" opacity="1.000000" stroke="none" 
	d="
M29.840734,87.178909 
	C32.868408,86.623558 36.118629,86.179588 39.370014,86.170891 
	C50.135918,86.142082 60.902241,86.270218 72.025505,86.603073 
	C58.400036,95.495590 44.285812,95.161057 29.840734,87.178909 
z"/>
<path fill="#F14B41" opacity="1.000000" stroke="none" 
	d="
M63.626793,42.882469 
	C63.552315,40.921322 63.477837,38.960178 63.941921,36.567265 
	C72.994270,36.045227 81.508057,35.954952 90.021851,35.864681 
	C90.682060,37.908127 91.342278,39.951576 91.522751,42.437855 
	C81.904266,42.881279 72.765533,42.881874 63.626793,42.882469 
z"/>
<path fill="#EAEBEE" opacity="1.000000" stroke="none" 
	d="
M63.503456,43.302479 
	C72.765533,42.881874 81.904266,42.881279 91.504807,42.816719 
	C92.304893,44.546333 92.643166,46.339909 92.451111,48.549522 
	C82.464951,48.957264 73.009117,48.948975 63.553276,48.940685 
	C63.495556,47.201286 63.437840,45.461887 63.503456,43.302479 
z"/>
<path fill="#F24337" opacity="1.000000" stroke="none" 
	d="
M63.445332,49.354767 
	C73.009117,48.948975 82.464951,48.957264 92.379120,48.963188 
	C92.883171,50.734127 92.928894,52.507435 92.906143,54.720142 
	C83.269760,55.126949 73.701851,55.094353 63.687576,54.980373 
	C63.273266,53.188938 63.305325,51.478893 63.445332,49.354767 
z"/>
<path fill="#EAE7E9" opacity="1.000000" stroke="none" 
	d="
M90.014130,35.507858 
	C81.508057,35.954952 72.994270,36.045227 64.056061,36.159653 
	C63.558563,34.454659 63.485485,32.725506 63.940838,30.567532 
	C71.991142,30.047489 79.513016,29.956274 87.034889,29.865059 
	C88.025406,31.627050 89.015915,33.389042 90.014130,35.507858 
z"/>
<path fill="#F14338" opacity="1.000000" stroke="none" 
	d="
M87.012169,29.516323 
	C79.513016,29.956274 71.991142,30.047489 64.042694,30.145145 
	C63.521580,28.372538 63.427029,26.593489 63.868401,24.389595 
	C70.589767,23.895016 76.775215,23.825285 82.960663,23.755554 
	C84.303589,25.559563 85.646523,27.363573 87.012169,29.516323 
z"/>
<path fill="#E8E9ED" opacity="1.000000" stroke="none" 
	d="
M82.818558,23.470322 
	C76.775215,23.825285 70.589767,23.895016 63.972664,23.954147 
	C63.482620,22.202297 63.424232,20.461042 63.896553,18.319326 
	C68.137207,17.668951 71.847153,17.419039 75.557098,17.169128 
	C77.930214,19.174448 80.303329,21.179768 82.818558,23.470322 
z"/>
<path fill="#EC4A42" opacity="1.000000" stroke="none" 
	d="
M75.306320,16.878525 
	C71.847153,17.419039 68.137207,17.668951 64.009735,17.897009 
	C63.503555,15.922829 63.414898,13.970502 63.382385,11.601032 
	C67.310867,12.985232 71.183197,14.786577 75.306320,16.878525 
z"/>
</svg>